 The Tuxedo 2002 HDRip H264 AAC-Rx(Phoenix-RG).mp4
      Format : MPEG-4
      Format profile : Base Media
      Codec ID : isom
      File size : 1.62 GiB
      Duration : 1h 38mn
      Overall bit rate : 2 352 Kbps
      
   Video #1
      Format : AVC
      Format/Info : Advanced Video Codec
      Format profile : High@L4.1
      Format settings, CABAC : Yes
      Format settings, ReFrames : 8 frames
      Codec ID : avc1
      Codec ID/Info : Advanced Video Coding
      Duration : 1h 38mn
      Bit rate mode : Variable
      Bit rate : 2 030 Kbps
      Maximum bit rate : 8 371 Kbps
      Width : 1 280 pixels
      Height : 720 pixels
      Display aspect ratio : 16/9
      Frame rate mode : Constant
      Frame rate : 23.976 fps
      Resolution : 24 bits
      Colorimetry : 4:2:0
      Scan type : Progressive
      Bits/(Pixel*Frame) : 0.092
      Stream size : 1.39 GiB (86%)
      Writing library : x264 core 92 r1510 33d382a
      
   Audio #2
      Format : AAC
      Format/Info : Advanced Audio Codec
      Format version : Version 4
      Format profile : LC
      Format settings, SBR : No
      Codec ID : 40
      Duration : 1h 38mn
      Bit rate mode : Variable
      Bit rate : 321 Kbps
      Maximum bit rate : 385 Kbps
      Channel(s) : 6 channels
      Channel positions : Front: L C R, Rear: L R, LFE
      Sampling rate : 48.0 KHz
      Resolution : 16 bits
      Stream size : 226 MiB (14%)

SCREEN:
 
http://img192.imageshack.us/img192/8664/vlcsnap278079.jpg
 
http://img227.imageshack.us/img227/9248/vlcsnap278438.jpg
 
http://img832.imageshack.us/img832/3610/vlcsnap279421.jpg